<svg version="1.1" id="Layer_1" xmlns="http://www.w3.org/2000/svg" xmlns:xlink="http://www.w3.org/1999/xlink" x="0px" y="0px" viewBox="0 0 392 388" style="enable-background:new 0 0 392 388;" xml:space="preserve">
  <style type="text/css">
    .st0{fill-rule:evenodd;clip-rule:evenodd;fill:url(#SVGID_1_);}
	.st1{fill-rule:evenodd;clip-rule:evenodd;fill:url(#SVGID_00000022530101438956881650000005832313497118860959_);}
	.st2{fill:url(#SVGID_00000082351106088534221910000014743908134456735410_);}
	
		.st3{fill:url(#SVGID_00000053529694876730422340000012207912192959145392_);stroke:url(#SVGID_00000166635578924444017840000003221613620117428616_);stroke-width:2.3;}
	.st4{fill:url(#SVGID_00000088132852398764408560000001239841857892831141_);}
	.st5{fill:url(#SVGID_00000144303485864840689330000015667311966388592520_);}
	.st6{fill:url(#SVGID_00000118356222931936928700000018030656314197393341_);}
  </style>
  <linearGradient id="SVGID_1_" gradientUnits="userSpaceOnUse" x1="283.6447" y1="66.897" x2="-14.4273" y2="396.485" gradientTransform="matrix(1 0 0 -1 0 390)">
    <stop offset="6.900000e-02" style="stop-color:#000B72"/>
    <stop offset="0.117" style="stop-color:#232D85"/>
    <stop offset="0.358" style="stop-color:#8A6CFF"/>
    <stop offset="0.532" style="stop-color:#424592"/>
    <stop offset="0.558" style="stop-color:#9695DF"/>
    <stop offset="0.585" style="stop-color:#464493"/>
    <stop offset="0.626" style="stop-color:#352980"/>
    <stop offset="0.677" style="stop-color:#181757"/>
    <stop offset="0.725" style="stop-color:#4536A5"/>
    <stop offset="0.765" style="stop-color:#9B93F3"/>
    <stop offset="0.812" style="stop-color:#8A6CFF"/>
    <stop offset="0.832" style="stop-color:#C3B4FF"/>
    <stop offset="0.84" style="stop-color:#FFFFFF"/>
  </linearGradient>
  <path class="st0" d="M356.2,256C330.4,162.1,233.2,66.1,139.1,41.5l-8.2-2.2c-34.1-8.9-63.2-7.2-85.1,3l-3.2-4.7L32.2,50.4
	C3.6,71.8-7.3,112.4,7.1,164.6C32.8,258.5,130,354.5,224.1,379.1l8.2,2.2C326.5,405.9,381.9,349.8,356.2,256L356.2,256z"/>
  <linearGradient id="SVGID_00000064311983879866514060000010789404134628014998_" gradientUnits="userSpaceOnUse" x1="323.2884" y1="35.1329" x2="-12.8876" y2="404.2929" gradientTransform="matrix(1 0 0 -1 0 390)">
    <stop offset="6.900000e-02" style="stop-color:#000B72"/>
    <stop offset="0.117" style="stop-color:#232D85"/>
    <stop offset="0.358" style="stop-color:#8A6CFF"/>
    <stop offset="0.532" style="stop-color:#424592"/>
    <stop offset="0.558" style="stop-color:#9695DF"/>
    <stop offset="0.585" style="stop-color:#464493"/>
    <stop offset="0.626" style="stop-color:#352980"/>
    <stop offset="0.677" style="stop-color:#181757"/>
    <stop offset="0.725" style="stop-color:#4536A5"/>
    <stop offset="0.765" style="stop-color:#9B93F3"/>
    <stop offset="0.812" style="stop-color:#8A6CFF"/>
    <stop offset="0.832" style="stop-color:#C3B4FF"/>
    <stop offset="0.84" style="stop-color:#FFFFFF"/>
  </linearGradient>
  <path style="fill-rule:evenodd;clip-rule:evenodd;fill:url(#SVGID_00000064311983879866514060000010789404134628014998_);" d="
	M360,249.2C334.3,155.4,237.1,59.4,143,34.8l-8.2-2.2c-33.9-8.9-62.8-7.3-84.7,2.8L45.7,29L27.8,50.9c-3.2,3.2-6.1,6.8-8.6,10.5
	l-0.3,0.4v0.1c-15.2,22.9-18.9,56.1-8,96C36.7,251.7,133.9,347.7,228,372.3l8.2,2.2C330.4,399.1,385.8,343,360,249.2z"/>
  <linearGradient id="SVGID_00000019663245484496312710000017669779993377605282_" gradientUnits="userSpaceOnUse" x1="120.9369" y1="1755.0135" x2="-98.8901" y2="1510.4766" gradientTransform="matrix(0.2648 0.9643 0.9675 0.253 -1413.7893 -272.0519)">
    <stop offset="6.900000e-02" style="stop-color:#000B72"/>
    <stop offset="0.117" style="stop-color:#232D85"/>
    <stop offset="0.532" style="stop-color:#424592"/>
    <stop offset="0.558" style="stop-color:#7776AC"/>
    <stop offset="0.585" style="stop-color:#464493"/>
    <stop offset="0.626" style="stop-color:#352980"/>
    <stop offset="0.677" style="stop-color:#181757"/>
    <stop offset="0.725" style="stop-color:#4536A5"/>
    <stop offset="0.765" style="stop-color:#9B93F3"/>
    <stop offset="0.812" style="stop-color:#8A6CFF"/>
    <stop offset="0.879" style="stop-color:#BEBBFF"/>
    <stop offset="0.914" style="stop-color:#D3D4FF"/>
    <stop offset="0.932" style="stop-color:#FFFFFF"/>
  </linearGradient>
  <path style="fill:url(#SVGID_00000019663245484496312710000017669779993377605282_);" d="M379.3,230.9L379.3,230.9
	c25.8,93.8-29.7,149.9-123.8,125.3l-8.2-2.2C153.2,329.4,56,233.4,30.2,139.6l0,0C4.5,45.7,59.9-10.4,154,14.3l8.2,2.2
	C256.4,41,353.6,137.1,379.3,230.9z"/>
  <radialGradient id="SVGID_00000139994401722326779050000004015222755317438883_" cx="-801.3058" cy="1194.7661" r="1" gradientTransform="matrix(503.5033 427.7491 213.9 -343.2556 147796.4844 752777.8125)" gradientUnits="userSpaceOnUse">
    <stop offset="0" style="stop-color:#FFFFFF"/>
    <stop offset="0.134" style="stop-color:#C8CAFF"/>
    <stop offset="0.332" style="stop-color:#9B84FF"/>
    <stop offset="0.519" style="stop-color:#6E5AD5"/>
    <stop offset="0.717" style="stop-color:#221B8F"/>
    <stop offset="0.888" style="stop-color:#060954"/>
    <stop offset="1" style="stop-color:#000000"/>
  </radialGradient>
  <linearGradient id="SVGID_00000124137921397368544300000006106661852516359051_" gradientUnits="userSpaceOnUse" x1="126.9849" y1="1715.8214" x2="200.8389" y2="1760.4703" gradientTransform="matrix(0.2648 0.9643 0.9675 0.253 -1409.0293 -278.3369)">
    <stop offset="0" style="stop-color:#5B53BE;stop-opacity:0"/>
    <stop offset="1" style="stop-color:#CCC8FF"/>
  </linearGradient>
  <path style="fill:url(#SVGID_00000139994401722326779050000004015222755317438883_);stroke:url(#SVGID_00000124137921397368544300000006106661852516359051_);stroke-width:2.3;" d="
	M383.2,224.1L383.2,224.1c25.8,94.1-29.7,150.4-124.1,125.7l-7.3-1.9c-94.4-24.7-191.9-121-217.7-215.1l0,0
	C8.2,38.7,63.8-17.6,158.2,7.1l7.3,1.9C259.9,33.7,357.4,130,383.2,224.1z"/>
  <linearGradient id="SVGID_00000033341194750814738060000011728174819187326908_" gradientUnits="userSpaceOnUse" x1="291.8867" y1="229.3532" x2="255.1223" y2="165.6753">
    <stop offset="0" style="stop-color:#FFFFFF"/>
    <stop offset="0.65" style="stop-color:#FFFFFF;stop-opacity:0.75"/>
    <stop offset="1" style="stop-color:#FFFFFF;stop-opacity:0.5"/>
  </linearGradient>
  <path style="fill:url(#SVGID_00000033341194750814738060000011728174819187326908_);" d="M291.9,176.8c2.4,3.5,4.5,7,6.2,10.4
	c12.2,24.7,5,45.6-18.7,49.1c-3.6,0.5-6.5,0.9-11.5,1.7l-8-11.5c-11.5-16.6-14.6-32.4-10-43.6c3.4-8.4,11-14.2,22.6-15.9l11.5-1.7
	L291.9,176.8L291.9,176.8z"/>
  <linearGradient id="SVGID_00000037681479610270403120000012092599572847665581_" gradientUnits="userSpaceOnUse" x1="255.9116" y1="165.47" x2="191.5763" y2="88.7983">
    <stop offset="0" style="stop-color:#FFFFFF"/>
    <stop offset="0.8" style="stop-color:#FFFFFF;stop-opacity:0.537"/>
    <stop offset="1" style="stop-color:#FFFFFF;stop-opacity:0.25"/>
  </linearGradient>
  <path style="fill:url(#SVGID_00000037681479610270403120000012092599572847665581_);" d="M270.7,146.3c-2.4-3.5-5.1-6.9-8.1-10.1
	c-21.1-23.4-53.5-38.7-77.2-35.3c-3.6,0.5-6.5,0.9-11.5,1.7l8,11.5c11.5,16.6,28.9,30.3,46.8,38.3c13.4,6,26.9,8.7,38.5,7.1
	l11.5-1.7L270.7,146.3z"/>
  <linearGradient id="SVGID_00000091001383317335054330000016073451932810695833_" gradientUnits="userSpaceOnUse" x1="239.0575" y1="251.9504" x2="136.1579" y2="87.2765">
    <stop offset="0" style="stop-color:#FFFFFF"/>
    <stop offset="0.8" style="stop-color:#FFFFFF;stop-opacity:0.65"/>
    <stop offset="1" style="stop-color:#FFFFFF;stop-opacity:0"/>
  </linearGradient>
  <path style="fill:url(#SVGID_00000091001383317335054330000016073451932810695833_);" d="M198.5,150.9l61.2,88.2
	c-24.3,3.5-58.6-14.8-76.7-40.8l-61.2-88.2c12.2-1.7,26.8,1.9,40.7,9.3C176.4,126.8,189.5,137.9,198.5,150.9L198.5,150.9z"/>
  <script xmlns=""/>
</svg>
