<?xml version="1.0" encoding="UTF-8"?>
<svg id="Layer_2" data-name="Layer 2" xmlns="http://www.w3.org/2000/svg" viewBox="0 0 99.35 111.41">
  <defs>
    <style>
      .cls-1 {
        fill: #0dbf94;
        stroke-width: 0px;
      }
    </style>
  </defs>
  <g id="Layer_1-2" data-name="Layer 1">
    <g>
      <path class="cls-1" d="m99.35,68.26c0,2.89-.28,5.71-.83,8.44-3.93,19.79-21.38,34.72-42.33,34.72-3.21,0-5.75,0-10.17,0v-9.46c0-13.64,6.33-25.81,16.21-33.7,7.38-5.92,16.75-9.45,26.94-9.45h10.17v9.45Z"/>
      <path class="cls-1" d="m99.35,43.16c0-2.89-.28-5.71-.83-8.44C94.6,14.93,77.15,0,56.2,0c-3.21,0-5.75,0-10.17,0v9.46c0,13.64,6.33,25.81,16.21,33.7,7.38,5.92,16.75,9.45,26.94,9.45h10.17v-9.45Z"/>
      <path class="cls-1" d="m38.82,38.82v72.59C17.39,111.41,0,94.03,0,72.59V0C10.73,0,20.42,4.34,27.46,11.37c7.02,7.03,11.37,16.73,11.37,27.46Z"/>
    </g>
  </g>
</svg>