<?xml version="1.0" encoding="utf-8"?>
<!--Generator: Adobe Illustrator 27.9.0, SVG Export Plug-In . SVG Version: 6.00 Build 0)-->
<svg version="1.1" id="Layer_1" xmlns="http://www.w3.org/2000/svg" xmlns:xlink="http://www.w3.org/1999/xlink" x="0px" y="0px" viewBox="0 0 392 388" style="enable-background:new 0 0 392 388;" xml:space="preserve">
  <style type="text/css">
    .st0{fill-rule:evenodd;clip-rule:evenodd;fill:url(#SVGID_1_);}
	.st1{fill-rule:evenodd;clip-rule:evenodd;fill:url(#SVGID_00000156566190033917525740000011208056555092346505_);}
	.st2{fill:url(#SVGID_00000129900298194203940060000017027649098404281752_);}
	
		.st3{fill:url(#SVGID_00000126324991745673003500000017148134215285923210_);stroke:url(#SVGID_00000120559379763684130400000013776239076319983267_);stroke-width:2.3;}
	.st4{fill:url(#SVGID_00000085949816165096516830000000906727066753690764_);}
	.st5{fill:url(#SVGID_00000008119198317413664820000018149959365900838309_);}
	.st6{fill:url(#SVGID_00000031202908555295044750000003461835687769698449_);}
	.st7{fill:#FFFFFF;}
  </style>
  <linearGradient id="SVGID_1_" gradientUnits="userSpaceOnUse" x1="283.6341" y1="1933.1125" x2="-14.4379" y2="1603.5247" gradientTransform="matrix(1 0 0 1 0 -1610)">
    <stop offset="6.900000e-02" style="stop-color:#00725D"/>
    <stop offset="0.117" style="stop-color:#238578"/>
    <stop offset="0.358" style="stop-color:#6CFAFF"/>
    <stop offset="0.532" style="stop-color:#42927A"/>
    <stop offset="0.558" style="stop-color:#95DFD3"/>
    <stop offset="0.585" style="stop-color:#449387"/>
    <stop offset="0.626" style="stop-color:#29807D"/>
    <stop offset="0.677" style="stop-color:#175757"/>
    <stop offset="0.725" style="stop-color:#36A5A1"/>
    <stop offset="0.765" style="stop-color:#93EBF3"/>
    <stop offset="0.812" style="stop-color:#6CFAFF"/>
    <stop offset="0.832" style="stop-color:#B4FDFF"/>
    <stop offset="0.84" style="stop-color:#FFFFFF"/>
  </linearGradient>
  <path class="st0" d="M356.2,256c-25.8-93.9-123-189.9-217.1-214.5l-8.2-2.2c-34.1-8.9-63.2-7.2-85.1,3l-3.2-4.7L32.2,50.4
	C3.6,71.8-7.3,112.4,7.1,164.6c25.7,93.9,122.9,189.9,217,214.5l8.2,2.2C326.5,405.9,381.9,349.8,356.2,256L356.2,256z"/>
  <linearGradient id="SVGID_00000000181958670258017380000003820562932431720378_" gradientUnits="userSpaceOnUse" x1="323.2884" y1="1964.8671" x2="-12.8877" y2="1595.7072" gradientTransform="matrix(1 0 0 1 0 -1610)">
    <stop offset="6.900000e-02" style="stop-color:#005952"/>
    <stop offset="0.117" style="stop-color:#185C51"/>
    <stop offset="0.358" style="stop-color:#6CFFEB"/>
    <stop offset="0.532" style="stop-color:#42928A"/>
    <stop offset="0.558" style="stop-color:#95DFD3"/>
    <stop offset="0.585" style="stop-color:#449387"/>
    <stop offset="0.626" style="stop-color:#29807D"/>
    <stop offset="0.677" style="stop-color:#17574C"/>
    <stop offset="0.725" style="stop-color:#36A5A1"/>
    <stop offset="0.765" style="stop-color:#93F3EB"/>
    <stop offset="0.812" style="stop-color:#6CFAFF"/>
    <stop offset="0.832" style="stop-color:#B4FDFF"/>
    <stop offset="0.84" style="stop-color:#FFFFFF"/>
  </linearGradient>
  <path style="fill-rule:evenodd;clip-rule:evenodd;fill:url(#SVGID_00000000181958670258017380000003820562932431720378_);" d="
	M360,249.2C334.3,155.4,237.1,59.4,143,34.8l-8.2-2.2c-33.9-8.9-62.8-7.3-84.7,2.8L45.7,29L27.8,50.9c-3.2,3.2-6.1,6.8-8.6,10.5
	l-0.3,0.4v0.1c-15.2,22.9-18.9,56.1-8,96c25.8,93.8,123,189.8,217.1,214.4l8.2,2.2C330.4,399.1,385.8,343,360,249.2z"/>
  <linearGradient id="SVGID_00000044887451856798305300000007780607021385797816_" gradientUnits="userSpaceOnUse" x1="-17.1673" y1="-1207.9379" x2="-236.9943" y2="-963.4009" gradientTransform="matrix(0.2648 0.9643 -0.9675 -0.253 -847.9924 -0.384)">
    <stop offset="6.900000e-02" style="stop-color:#007267"/>
    <stop offset="0.117" style="stop-color:#22806C"/>
    <stop offset="0.532" style="stop-color:#429282"/>
    <stop offset="0.558" style="stop-color:#76ACA7"/>
    <stop offset="0.585" style="stop-color:#449385"/>
    <stop offset="0.626" style="stop-color:#29807A"/>
    <stop offset="0.677" style="stop-color:#175751"/>
    <stop offset="0.725" style="stop-color:#36A59A"/>
    <stop offset="0.765" style="stop-color:#93F3F0"/>
    <stop offset="0.812" style="stop-color:#6CFFFF"/>
    <stop offset="0.879" style="stop-color:#BBFFF9"/>
    <stop offset="0.914" style="stop-color:#D3FFF9"/>
    <stop offset="0.932" style="stop-color:#FFFFFF"/>
  </linearGradient>
  <path style="fill:url(#SVGID_00000044887451856798305300000007780607021385797816_);" d="M379.3,230.9L379.3,230.9
	c25.8,93.8-29.7,149.9-123.8,125.3l-8.2-2.2C153.2,329.4,56,233.4,30.2,139.6l0,0C4.5,45.7,59.9-10.4,154,14.3l8.2,2.2
	C256.4,41,353.6,137.1,379.3,230.9z"/>
  <radialGradient id="SVGID_00000044174734707897593330000003708277954459971767_" cx="-1602.6116" cy="0.4678" r="1" gradientTransform="matrix(503.5033 427.7491 -130.6124 209.6 806878.1875 685327.4375)" gradientUnits="userSpaceOnUse">
    <stop offset="0" style="stop-color:#FFFFFF"/>
    <stop offset="0.134" style="stop-color:#C8FFF4"/>
    <stop offset="0.332" style="stop-color:#84FFE6"/>
    <stop offset="0.519" style="stop-color:#5AD5BC"/>
    <stop offset="0.717" style="stop-color:#1B8F81"/>
    <stop offset="0.888" style="stop-color:#065451"/>
    <stop offset="1" style="stop-color:#000000"/>
  </radialGradient>
  <linearGradient id="SVGID_00000168819981130016016660000016882856274330274734_" gradientUnits="userSpaceOnUse" x1="-11.1606" y1="-1168.728" x2="62.6934" y2="-1213.377" gradientTransform="matrix(0.2648 0.9643 -0.9675 -0.253 -843.2324 -6.669)">
    <stop offset="0" style="stop-color:#065451;stop-opacity:0"/>
    <stop offset="1" style="stop-color:#6CFFEB"/>
  </linearGradient>
  <path style="fill:url(#SVGID_00000044174734707897593330000003708277954459971767_);stroke:url(#SVGID_00000168819981130016016660000016882856274330274734_);stroke-width:2.3;" d="
	M383.2,224.1L383.2,224.1c25.8,94.1-29.7,150.4-124.1,125.7l-7.3-1.9c-94.4-24.7-191.9-121-217.7-215.1l0,0
	C8.2,38.7,63.8-17.6,158.2,7.1l7.3,1.9C259.9,33.7,357.4,130,383.2,224.1z"/>
  <linearGradient id="SVGID_00000086690452122679379120000003953134801998872708_" gradientUnits="userSpaceOnUse" x1="291.8915" y1="160.6496" x2="255.1272" y2="224.3275" gradientTransform="matrix(1 0 0 -1 0 390)">
    <stop offset="0" style="stop-color:#FFFFFF"/>
    <stop offset="0.8537" style="stop-color:#FFFFFF;stop-opacity:0.5732"/>
    <stop offset="1" style="stop-color:#FFFFFF;stop-opacity:0.5"/>
  </linearGradient>
  <path style="fill:url(#SVGID_00000086690452122679379120000003953134801998872708_);" d="M291.9,176.8c2.4,3.5,4.5,7,6.2,10.4
	c12.2,24.7,5,45.6-18.7,49.1c-3.6,0.5-6.5,0.9-11.5,1.7l-8-11.5c-11.5-16.6-14.6-32.4-10-43.6c3.4-8.4,11-14.2,22.6-15.9l11.5-1.7
	L291.9,176.8L291.9,176.8z"/>
  <linearGradient id="SVGID_00000049189709523138203450000011033045072113772174_" gradientUnits="userSpaceOnUse" x1="255.9008" y1="224.521" x2="191.5656" y2="301.1927" gradientTransform="matrix(1 0 0 -1 0 390)">
    <stop offset="0" style="stop-color:#FFFFFF"/>
    <stop offset="0.8537" style="stop-color:#FFFFFF;stop-opacity:0.5732"/>
    <stop offset="1" style="stop-color:#FFFFFF;stop-opacity:0.5"/>
  </linearGradient>
  <path style="fill:url(#SVGID_00000049189709523138203450000011033045072113772174_);" d="M270.7,146.3c-2.4-3.5-5.1-6.9-8.1-10.1
	c-21.1-23.4-53.5-38.7-77.2-35.3c-3.6,0.5-6.5,0.9-11.5,1.7l8,11.5c11.5,16.6,28.9,30.3,46.8,38.3c13.4,6,26.9,8.7,38.5,7.1
	l11.5-1.7L270.7,146.3z"/>
  <linearGradient id="SVGID_00000121280056259523901170000011859424247906343843_" gradientUnits="userSpaceOnUse" x1="239.0983" y1="138.0266" x2="136.1987" y2="302.7005" gradientTransform="matrix(1 0 0 -1 0 390)">
    <stop offset="0" style="stop-color:#FFFFFF"/>
    <stop offset="0.8537" style="stop-color:#FFFFFF;stop-opacity:0.5732"/>
    <stop offset="1" style="stop-color:#FFFFFF;stop-opacity:0.5"/>
  </linearGradient>
  <path style="fill:url(#SVGID_00000121280056259523901170000011859424247906343843_);" d="M198.5,150.9l61.2,88.2
	c-24.3,3.5-58.6-14.8-76.7-40.8l-61.2-88.2c12.2-1.7,26.8,1.9,40.7,9.3C176.4,126.8,189.5,137.9,198.5,150.9L198.5,150.9z"/>
  <script xmlns=""/>
  <rect x="396.8" y="33.6" class="st7" width="38.8" height="34.2"/>
</svg>
