<?xml version="1.0" encoding="UTF-8"?>
<svg id="Layer_2" data-name="Layer 2" xmlns="http://www.w3.org/2000/svg" xmlns:xlink="http://www.w3.org/1999/xlink" viewBox="0 0 512 512">
  <defs>
    <style>
      .cls-1 {
        fill: url(#linear-gradient);
      }

      .cls-1, .cls-2, .cls-3, .cls-4, .cls-5 {
        stroke-width: 0px;
      }

      .cls-2 {
        fill: #f4be60;
      }

      .cls-3 {
        fill: #e0aa3c;
      }

      .cls-4 {
        fill: url(#linear-gradient-2);
      }

      .cls-5 {
        fill: url(#linear-gradient-3);
      }
    </style>
    <linearGradient id="linear-gradient" x1="274.25" y1="393.69" x2="356.2" y2="251.74" gradientUnits="userSpaceOnUse">
      <stop offset="0" stop-color="#fff"/>
      <stop offset=".7" stop-color="#fff" stop-opacity=".9"/>
      <stop offset="1" stop-color="#fff" stop-opacity=".5"/>
    </linearGradient>
    <linearGradient id="linear-gradient-2" x1="356.2" y1="260.25" x2="274.25" y2="118.31" xlink:href="#linear-gradient"/>
    <linearGradient id="linear-gradient-3" x1="194.33" y1="382.41" x2="194.33" y2="129.59" gradientUnits="userSpaceOnUse">
      <stop offset="0" stop-color="#fff"/>
      <stop offset=".75" stop-color="#fff" stop-opacity=".85"/>
      <stop offset="1" stop-color="#fff" stop-opacity=".5"/>
    </linearGradient>
  </defs>
  <g id="Layer_1-2" data-name="Layer 1">
    <path class="cls-2" d="m256,0C114.62,0,0,114.62,0,256s114.62,256,256,256,256-114.61,256-256S397.39,0,256,0Zm163.35,419.34c-43.63,43.63-101.64,67.66-163.35,67.66s-119.71-24.03-163.34-67.66S25,317.7,25,256s24.03-119.71,67.66-163.34S194.3,25,256,25s119.72,24.03,163.35,67.66c43.62,43.63,67.65,101.64,67.65,163.34s-24.03,119.71-67.65,163.34Z"/>
    <path class="cls-3" d="m487,256c0,61.7-24.03,119.71-67.65,163.34-43.63,43.63-101.64,67.66-163.35,67.66s-119.71-24.03-163.34-67.66S25,317.7,25,256s24.03-119.71,67.66-163.34S194.3,25,256,25s119.72,24.03,163.35,67.66c43.62,43.63,67.65,101.64,67.65,163.34Z"/>
    <g>
      <path class="cls-1" d="m375.74,284.47c0,6.55-.64,12.96-1.87,19.15-8.92,44.9-48.52,78.78-96.06,78.78-7.28,0-13.06,0-23.09,0v-21.46c0-30.96,14.36-58.56,36.79-76.48,16.75-13.43,38.01-21.45,61.14-21.45h23.09v21.45Z"/>
      <path class="cls-4" d="m375.74,227.52c0-6.55-.64-12.96-1.87-19.15-8.92-44.9-48.52-78.78-96.06-78.78-7.28,0-13.06,0-23.09,0v21.46c0,30.96,14.36,58.56,36.79,76.48,16.75,13.43,38.01,21.45,61.14,21.45h23.09v-21.45Z"/>
      <path class="cls-5" d="m238.38,217.69v164.73c-48.65,0-88.1-39.45-88.1-88.1v-164.73c24.34,0,46.35,9.85,62.31,25.79,15.94,15.96,25.79,37.96,25.79,62.31Z"/>
    </g>
  </g>
</svg>